<svg width="225" height="66" viewBox="0 0 225 66" fill="none" xmlns="http://www.w3.org/2000/svg">
<path d="M32.1228 24.0252H0.122074C-0.240212 21.6279 0.144384 20.6394 2.08478 19.636L32.4641 19.8151L32.1228 24.0252Z" fill="white"/>
<path d="M21.2549 9.587V0H49V9.35599V46.8954H36.8311L36.9528 10.7421C36.8219 9.76064 36.3975 9.50308 35.1275 9.47149L21.2549 9.587Z" fill="white"/>
<path d="M67.3926 37.4297V19.7812H73.0879V37.4297C73.0879 39.1406 72.7012 40.6172 71.9277 41.8594C71.166 43.0898 70.1289 44.0449 68.8164 44.7246C67.5156 45.3926 66.0449 45.7266 64.4043 45.7266C62.7168 45.7266 61.2168 45.4453 59.9043 44.8828C58.5918 44.3086 57.5605 43.4355 56.8105 42.2637C56.0723 41.0801 55.7031 39.5742 55.7031 37.7461H61.4336C61.4336 38.6484 61.5449 39.3633 61.7676 39.8906C62.002 40.4062 62.3418 40.7695 62.7871 40.9805C63.2324 41.1914 63.7715 41.2969 64.4043 41.2969C65.0137 41.2969 65.541 41.1504 65.9863 40.8574C66.4316 40.5527 66.7773 40.1133 67.0234 39.5391C67.2695 38.9531 67.3926 38.25 67.3926 37.4297ZM88.1699 40.7871V26.3555H93.6895V45.375H88.5215L88.1699 40.7871ZM88.75 36.9023L90.2617 36.8672C90.2617 38.1445 90.1094 39.3223 89.8047 40.4004C89.5117 41.4785 89.0664 42.416 88.4688 43.2129C87.8828 44.0098 87.1504 44.6309 86.2715 45.0762C85.4043 45.5098 84.3906 45.7266 83.2305 45.7266C82.293 45.7266 81.4316 45.5977 80.6465 45.3398C79.873 45.0703 79.2051 44.6543 78.6426 44.0918C78.0801 43.5176 77.6465 42.7852 77.3418 41.8945C77.0371 40.9922 76.8848 39.9141 76.8848 38.6602V26.3555H82.3691V38.6953C82.3691 39.1875 82.4277 39.6094 82.5449 39.9609C82.6738 40.3008 82.8438 40.582 83.0547 40.8047C83.2773 41.0273 83.5469 41.1914 83.8633 41.2969C84.1914 41.4023 84.5488 41.4551 84.9355 41.4551C85.9082 41.4551 86.6699 41.2559 87.2207 40.8574C87.7832 40.4473 88.1758 39.9023 88.3984 39.2227C88.6328 38.5312 88.75 37.7578 88.75 36.9023ZM102.637 30.416V45.375H97.1348V26.3555H102.303L102.637 30.416ZM101.916 35.1973L100.545 35.2324C100.545 33.8027 100.721 32.5195 101.072 31.3828C101.424 30.2461 101.922 29.2793 102.566 28.4824C103.223 27.6738 104.002 27.0586 104.904 26.6367C105.818 26.2148 106.826 26.0039 107.928 26.0039C108.818 26.0039 109.633 26.1328 110.371 26.3906C111.109 26.6484 111.742 27.0645 112.27 27.6387C112.809 28.2012 113.219 28.9512 113.5 29.8887C113.781 30.8145 113.922 31.957 113.922 33.3164V45.375H108.402V33.2988C108.402 32.502 108.291 31.8867 108.068 31.4531C107.846 31.0195 107.518 30.7148 107.084 30.5391C106.662 30.3633 106.146 30.2754 105.537 30.2754C104.893 30.2754 104.342 30.4043 103.885 30.6621C103.428 30.9082 103.053 31.2539 102.76 31.6992C102.467 32.1445 102.25 32.666 102.109 33.2637C101.98 33.8613 101.916 34.5059 101.916 35.1973ZM123.027 18.3574V45.375H117.525V18.3574H123.027ZM135.104 26.3555L126.824 35.918L122.447 40.3125L120.25 36.6035L123.801 32.0156L128.494 26.3555H135.104ZM129.303 45.375L123.941 36.6387L127.879 33.5625L135.596 45.375H129.303ZM151.979 36.7969H157.674C157.58 38.5547 157.1 40.1074 156.232 41.4551C155.377 42.791 154.188 43.8398 152.664 44.6016C151.141 45.3516 149.33 45.7266 147.232 45.7266C145.557 45.7266 144.057 45.4395 142.732 44.8652C141.408 44.291 140.283 43.4707 139.357 42.4043C138.443 41.3262 137.74 40.0312 137.248 38.5195C136.768 36.9961 136.527 35.2793 136.527 33.3691V31.8047C136.527 29.8945 136.779 28.1777 137.283 26.6543C137.787 25.1309 138.508 23.8301 139.445 22.752C140.383 21.6738 141.508 20.8477 142.82 20.2734C144.133 19.6992 145.598 19.4121 147.215 19.4121C149.395 19.4121 151.234 19.8047 152.734 20.5898C154.234 21.375 155.395 22.4531 156.215 23.8242C157.047 25.1953 157.545 26.7598 157.709 28.5176H151.996C151.949 27.5215 151.762 26.6836 151.434 26.0039C151.105 25.3125 150.602 24.791 149.922 24.4395C149.242 24.0879 148.34 23.9121 147.215 23.9121C146.395 23.9121 145.674 24.0645 145.053 24.3691C144.443 24.6738 143.934 25.1484 143.523 25.793C143.125 26.4375 142.826 27.2578 142.627 28.2539C142.428 29.2383 142.328 30.4102 142.328 31.7695V33.3691C142.328 34.7168 142.416 35.8828 142.592 36.8672C142.768 37.8516 143.049 38.666 143.436 39.3105C143.834 39.9551 144.344 40.4355 144.965 40.752C145.586 41.0684 146.342 41.2266 147.232 41.2266C148.252 41.2266 149.102 41.0684 149.781 40.752C150.461 40.4238 150.982 39.9316 151.346 39.2754C151.709 38.6191 151.92 37.793 151.979 36.7969ZM166.305 43.1777L171.279 26.3555H177.186L169.539 48.2227C169.375 48.7031 169.152 49.2188 168.871 49.7695C168.602 50.3203 168.232 50.8477 167.764 51.3516C167.307 51.8555 166.721 52.2656 166.006 52.582C165.291 52.8984 164.412 53.0566 163.369 53.0566C162.842 53.0566 162.432 53.0273 162.139 52.9688C161.857 52.9219 161.482 52.8398 161.014 52.7227L160.996 48.7324C161.148 48.7324 161.283 48.7324 161.4 48.7324C161.529 48.7441 161.658 48.75 161.787 48.75C162.443 48.75 162.971 48.6797 163.369 48.5391C163.779 48.3984 164.096 48.1875 164.318 47.9062C164.553 47.6367 164.74 47.291 164.881 46.8691L166.305 43.1777ZM164.635 26.3555L168.572 39.8906L169.24 45.709L165.531 45.9023L158.729 26.3555H164.635ZM186.66 41.4551C187.246 41.4551 187.756 41.3438 188.189 41.1211C188.623 40.8984 188.957 40.5879 189.191 40.1895C189.438 39.7793 189.561 39.2871 189.561 38.7129H194.729C194.729 40.0957 194.371 41.3145 193.656 42.3691C192.953 43.4238 192.004 44.25 190.809 44.8477C189.613 45.4336 188.266 45.7266 186.766 45.7266C185.289 45.7266 184 45.4863 182.898 45.0059C181.797 44.5137 180.877 43.8281 180.139 42.9492C179.4 42.0703 178.844 41.0508 178.469 39.8906C178.105 38.7188 177.924 37.4531 177.924 36.0938V35.6367C177.924 34.2891 178.105 33.0293 178.469 31.8574C178.844 30.6855 179.4 29.6602 180.139 28.7812C180.877 27.9023 181.791 27.2227 182.881 26.7422C183.982 26.25 185.271 26.0039 186.748 26.0039C188.307 26.0039 189.684 26.3027 190.879 26.9004C192.086 27.498 193.029 28.3594 193.709 29.4844C194.389 30.5977 194.729 31.9395 194.729 33.5098H189.561C189.561 32.9004 189.449 32.3555 189.227 31.875C189.016 31.3828 188.688 30.9961 188.242 30.7148C187.809 30.4219 187.27 30.2754 186.625 30.2754C185.957 30.2754 185.406 30.4219 184.973 30.7148C184.551 30.9961 184.229 31.3887 184.006 31.8926C183.783 32.3965 183.631 32.9707 183.549 33.6152C183.467 34.248 183.426 34.9219 183.426 35.6367V36.0938C183.426 36.8203 183.467 37.5117 183.549 38.168C183.631 38.8125 183.783 39.3809 184.006 39.873C184.24 40.3652 184.568 40.752 184.99 41.0332C185.412 41.3145 185.969 41.4551 186.66 41.4551ZM203.236 18.375V45.375H197.734V18.375H203.236ZM216.156 45.7266C214.645 45.7266 213.291 45.4863 212.096 45.0059C210.9 44.5254 209.887 43.8633 209.055 43.0195C208.234 42.1641 207.607 41.1797 207.174 40.0664C206.74 38.9531 206.523 37.7637 206.523 36.498V35.8301C206.523 34.4121 206.723 33.1055 207.121 31.9102C207.52 30.7148 208.1 29.6777 208.861 28.7988C209.635 27.9082 210.584 27.2227 211.709 26.7422C212.834 26.25 214.117 26.0039 215.559 26.0039C216.906 26.0039 218.107 26.2266 219.162 26.6719C220.217 27.1055 221.107 27.7324 221.834 28.5527C222.561 29.3613 223.111 30.3398 223.486 31.4883C223.873 32.625 224.066 33.9023 224.066 35.3203V37.5703H208.738V34.0371H218.688V33.6152C218.688 32.9473 218.564 32.3613 218.318 31.8574C218.084 31.3535 217.732 30.9668 217.264 30.6973C216.807 30.416 216.227 30.2754 215.523 30.2754C214.855 30.2754 214.299 30.416 213.854 30.6973C213.408 30.9785 213.051 31.377 212.781 31.8926C212.523 32.3965 212.336 32.9883 212.219 33.668C212.102 34.3359 212.043 35.0566 212.043 35.8301V36.498C212.043 37.2363 212.143 37.9102 212.342 38.5195C212.541 39.1289 212.834 39.6504 213.221 40.084C213.607 40.5176 214.076 40.8574 214.627 41.1035C215.178 41.3496 215.805 41.4727 216.508 41.4727C217.375 41.4727 218.201 41.3086 218.986 40.9805C219.771 40.6406 220.451 40.1133 221.025 39.3984L223.592 42.334C223.205 42.8965 222.66 43.4414 221.957 43.9688C221.266 44.4844 220.434 44.9062 219.461 45.2344C218.488 45.5625 217.387 45.7266 216.156 45.7266Z" fill="white"/>
<path fill-rule="evenodd" clip-rule="evenodd" d="M49 47.011C49 47.011 36.9529 45.3939 36.8312 47.011C36.8119 47.2666 36.7988 47.4876 36.7869 47.6872V47.6873L36.7869 47.6874C36.7236 48.7502 36.6964 49.2061 35.9793 51.0537C35.1275 53.2483 34.0323 54.4034 32.8154 54.9809C32.2298 55.1936 30.8673 55.2237 29.3823 55.2565H29.3823H29.3822H29.3822C28.2051 55.2826 26.951 55.3103 25.9457 55.432C26.6937 55.173 28.7585 52.6305 28.7343 51.6312L31.4416 27.0284H1.78479L4.56964 52.1978C8.84273 51.8622 11.6416 53.2483 13.4529 55.432C15.9007 59.1391 15.2922 64.1059 12.7368 65.8759H29.2977C30.1947 65.9438 31.2775 65.936 32.5721 65.8385C47.9049 64.6834 49 51.0537 49 48.8591V47.011ZM22.0808 43.4771C22.2285 42.8087 22.1636 42.4881 21.8847 41.9757L20.6431 39.7023L20.3987 39.8259L20.1846 39.4339L23.6881 37.6627L23.7737 37.8195L25.529 41.0336C25.6505 41.5702 25.5641 42.0079 25.1507 42.6254C24.2169 43.1964 23.6415 43.4699 22.0808 43.4771ZM18.9143 47.5788L21.5078 47.5682C21.8867 47.4973 22.04 47.4103 22.2411 47.1974L24.2752 44.0683L19.624 44.1189C19.1529 43.944 19.1601 43.6674 19.3547 43.0546L18.8962 42.7862L17.4283 45.429L18.9778 48.6471L18.9143 47.5788ZM20.4492 32.7475L21.7999 34.8777L22.7173 34.2729L20.6559 37.2131L17.5458 37.371L17.5475 36.8546C18.1933 36.698 18.443 36.5609 18.355 36.0825L15.9047 32.2784L19.7402 32.3354C20.0336 32.3909 20.1902 32.4721 20.4492 32.7475ZM15.2794 35.3292C15.5909 34.8345 15.8426 34.6153 16.5136 34.3912C15.7 33.1098 15.1592 32.7773 14.1683 32.3037C13.4053 32.2825 12.9712 32.4377 12.5566 32.8152L10.6052 35.9228L10.51 36.0744L13.8974 38.0436L14.1354 37.6646L13.8991 37.5272L15.2794 35.3292ZM8.94533 38.8139L7.74882 41.0277C7.63775 41.3835 7.64649 41.5545 7.74882 41.8247L9.68165 45.0127L11.7986 41.0277C12.1787 40.7079 12.4298 40.8426 12.903 41.2934L13.3632 41.0277L11.6145 38.5482L7.9329 38.3711L8.94533 38.8139ZM11.2463 43.4187C11.7926 43.8554 12.1178 43.9493 12.719 43.9501H15.3881V43.6844H15.8483V47.4923H15.6642H11.8906C11.3404 47.3461 10.9778 47.0689 10.602 46.4296C10.511 45.3687 10.527 44.7514 11.2463 43.4187Z" fill="white"/>
<path fill-rule="evenodd" clip-rule="evenodd" d="M7.5 66C10.5376 66 13 63.5376 13 60.5C13 57.4624 10.5376 55 7.5 55C4.46243 55 2 57.4624 2 60.5C2 63.5376 4.46243 66 7.5 66ZM7.5 64C9.433 64 11 62.433 11 60.5C11 58.567 9.433 57 7.5 57C5.567 57 4 58.567 4 60.5C4 62.433 5.567 64 7.5 64Z" fill="white"/>
</svg>
